<?xml version="1.0" standalone="no"?>
<!DOCTYPE svg PUBLIC "-//W3C//DTD SVG 20010904//EN"
 "http://www.w3.org/TR/2001/REC-SVG-20010904/DTD/svg10.dtd">
<svg version="1.0" xmlns="http://www.w3.org/2000/svg"
 width="518.000000pt" height="281.000000pt" viewBox="0 0 518.000000 281.000000"
 preserveAspectRatio="xMidYMid meet">

<g transform="translate(0.000000,281.000000) scale(0.100000,-0.100000)"
fill="#000000" stroke="none">
<path d="M205 2728 c-128 -46 -191 -205 -131 -333 33 -71 81 -111 168 -138 14
-5 17 -25 20 -129 3 -118 5 -127 37 -191 38 -74 94 -127 163 -154 36 -14 93
-18 346 -21 273 -3 304 -5 308 -20 31 -96 93 -162 180 -187 44 -13 62 -13 101
-4 93 23 160 82 184 163 l13 46 286 0 286 0 23 -55 c52 -125 171 -181 305
-144 55 15 128 91 145 152 l14 47 286 0 287 0 23 -54 c51 -124 173 -182 304
-145 56 15 131 92 148 152 l13 47 246 0 246 0 12 -46 c16 -58 93 -138 148
-153 49 -14 108 -14 157 0 66 18 137 95 157 169 6 24 9 25 116 30 108 5 109 5
109 30 0 25 -1 25 -110 30 l-109 5 -7 33 c-9 44 -54 99 -115 140 -47 32 -53
34 -126 30 -66 -3 -82 -7 -120 -33 -50 -35 -108 -116 -108 -151 l0 -24 -248 0
-248 0 -13 44 c-16 57 -69 119 -124 145 -51 25 -141 28 -191 7 -55 -23 -113
-82 -137 -141 l-23 -55 -287 0 -286 0 -13 45 c-42 149 -228 213 -360 125 -41
-28 -57 -48 -83 -102 l-32 -68 -285 0 -286 0 -12 45 c-15 55 -69 117 -128 146
-36 17 -58 20 -113 17 -59 -3 -77 -9 -120 -38 -48 -33 -86 -89 -105 -153 -5
-17 -24 -18 -313 -15 -342 3 -337 2 -408 74 -57 57 -68 93 -69 232 l-1 124 38
13 c87 30 137 84 171 188 5 16 28 17 290 17 l284 0 17 -50 c20 -62 54 -103
109 -134 130 -76 303 -11 347 129 l16 50 284 3 284 2 19 -52 c25 -73 88 -132
162 -154 68 -20 119 -13 186 23 56 31 90 71 111 133 l15 45 284 3 283 2 18
-51 c33 -93 138 -169 232 -169 95 0 202 78 228 167 l14 48 244 0 243 0 7 -33
c17 -83 95 -154 192 -174 48 -10 64 -9 113 6 72 23 135 84 161 155 l18 51 108
0 c87 0 109 3 113 15 14 35 -14 45 -121 45 l-102 0 -12 41 c-15 51 -83 126
-136 150 -50 23 -142 25 -193 4 -66 -28 -119 -92 -146 -177 -5 -17 -26 -18
-246 -18 -220 0 -241 1 -246 18 -27 85 -80 149 -146 177 -47 19 -138 19 -184
0 -70 -29 -126 -92 -146 -161 l-9 -34 -286 2 -285 3 -19 49 c-37 98 -119 155
-222 156 -113 0 -210 -70 -238 -172 l-10 -38 -285 0 c-262 0 -285 1 -290 18
-27 85 -80 149 -146 177 -47 19 -138 19 -184 0 -70 -29 -119 -83 -143 -157
l-13 -38 -287 0 -287 0 -13 48 c-17 59 -92 136 -148 151 -48 14 -128 13 -168
-1z m178 -31 c45 -20 104 -88 117 -139 36 -130 -56 -263 -190 -276 -112 -11
-213 70 -235 189 -14 75 42 182 115 220 42 23 145 25 193 6z m1096 -20 c52
-35 91 -110 91 -178 0 -66 -43 -146 -100 -184 -39 -26 -54 -30 -116 -30 -60 0
-76 4 -113 28 -23 15 -56 49 -72 75 -28 43 -30 53 -27 119 3 61 8 78 34 115
50 69 94 89 185 86 63 -3 82 -8 118 -31z m1024 19 c76 -32 121 -104 122 -196
0 -85 -30 -142 -98 -184 -133 -82 -293 -12 -331 146 -17 74 36 184 109 225 47
27 146 31 198 9z m1094 -19 c111 -77 123 -239 25 -334 -128 -125 -333 -53
-366 128 -13 74 42 181 113 220 56 30 174 23 228 -14z m969 1 c64 -44 94 -102
94 -180 0 -218 -276 -299 -397 -116 -25 36 -28 51 -28 119 0 71 3 81 31 120
45 62 101 89 184 89 60 0 73 -4 116 -32z m-3128 -684 c176 -73 176 -335 0
-408 -142 -60 -302 49 -302 204 0 155 160 264 302 204z m1067 -3 c128 -58 167
-240 74 -346 -113 -129 -323 -84 -375 81 -35 109 12 212 124 270 38 19 129 17
177 -5z m1061 0 c129 -59 166 -239 71 -348 -109 -124 -316 -82 -372 76 -19 55
-19 86 0 142 43 123 183 184 301 130z m969 0 c76 -34 135 -123 135 -201 0 -49
-22 -102 -58 -142 -95 -105 -244 -104 -334 2 -121 140 -19 360 167 360 28 0
68 -9 90 -19z"/>
<path d="M241 2587 c-57 -33 -68 -112 -22 -158 24 -23 38 -29 74 -29 38 0 49
5 71 31 34 40 35 97 3 134 -27 32 -90 42 -126 22z"/>
<path d="M1298 2583 c-47 -29 -60 -81 -33 -133 19 -37 43 -50 94 -50 93 0 131
114 59 175 -35 29 -81 32 -120 8z"/>
<path d="M2361 2586 c-31 -17 -50 -53 -51 -94 -1 -81 119 -126 174 -67 81 87
-20 218 -123 161z"/>
<path d="M3419 2585 c-56 -30 -63 -125 -12 -165 38 -30 107 -28 137 5 30 33
38 72 21 111 -25 59 -88 81 -146 49z"/>
<path d="M4381 2574 c-27 -22 -31 -32 -31 -75 0 -67 30 -99 92 -99 79 0 121
56 99 130 -21 70 -103 92 -160 44z"/>
<path d="M1315 1881 c-89 -39 -75 -169 21 -187 45 -8 85 14 107 58 16 32 16
40 4 70 -8 18 -21 39 -30 46 -20 17 -76 24 -102 13z"/>
<path d="M2368 1879 c-33 -13 -62 -71 -53 -107 16 -65 86 -98 143 -68 38 20
52 44 52 90 0 68 -72 112 -142 85z"/>
<path d="M3431 1880 c-37 -16 -50 -40 -51 -91 0 -35 5 -51 23 -67 32 -30 78
-37 115 -18 38 20 52 44 52 90 0 67 -74 113 -139 86z"/>
<path d="M4404 1880 c-50 -20 -71 -101 -39 -146 37 -54 139 -53 163 1 43 95
-32 182 -124 145z"/>
<path d="M5021 2516 c-24 -28 -6 -47 41 -44 38 3 43 6 43 28 0 21 -5 25 -36
28 -23 2 -40 -2 -48 -12z"/>
<path d="M5017 1814 c-16 -16 -6 -44 17 -50 45 -11 71 -1 71 26 0 22 -5 25
-40 28 -23 2 -44 0 -48 -4z"/>
</g>
</svg>
